<?xml version="1.0" encoding="UTF-8" standalone="no"?>
<!DOCTYPE svg PUBLIC "-//W3C//DTD SVG 1.1//EN"
 "http://www.w3.org/Graphics/SVG/1.1/DTD/svg11.dtd">
<!-- Generated by graphviz version 2.26.3 (20100126.1600)
 -->
<!-- Title: G Pages: 1 -->
<svg width="838pt" height="427pt"
 viewBox="0.00 0.00 838.00 427.00" xmlns="http://www.w3.org/2000/svg" xmlns:xlink="http://www.w3.org/1999/xlink">
<g id="graph1" class="graph" transform="scale(1 1) rotate(0) translate(4 423)">
<title>G</title>
<polygon fill="white" stroke="white" points="-4,5 -4,-423 835,-423 835,5 -4,5"/>
<g id="graph2" class="cluster"><title>clusterWeb</title>
<polygon fill="none" stroke="purple" points="8,-297 8,-411 566,-411 566,-297 8,-297"/>
<text text-anchor="middle" x="287" y="-394.4" font-family="Times,serif" font-size="14.00">the web</text>
</g>
<g id="graph3" class="cluster"><title>clusterGithub</title>
<polygon fill="none" stroke="blue" points="172,-305 172,-380 558,-380 558,-305 172,-305"/>
<text text-anchor="middle" x="365" y="-363.4" font-family="Times,serif" font-size="14.00">github</text>
</g>
<g id="graph4" class="cluster"><title>clusterRabe</title>
<polygon fill="none" stroke="black" points="136,-8 136,-289 822,-289 822,-8 136,-8"/>
<text text-anchor="middle" x="479" y="-272.4" font-family="Times,serif" font-size="14.00">rabe</text>
</g>
<g id="graph5" class="cluster"><title>clusterJenkins</title>
<polygon fill="none" stroke="darkgreen" points="144,-183 144,-258 586,-258 586,-183 144,-183"/>
<text text-anchor="middle" x="365" y="-241.4" font-family="Times,serif" font-size="14.00">jenkins integration service</text>
</g>
<g id="graph6" class="cluster"><title>clusterPuppet</title>
<polygon fill="none" stroke="red" points="594,-111 594,-258 814,-258 814,-111 594,-111"/>
<text text-anchor="middle" x="704" y="-241.4" font-family="Times,serif" font-size="14.00">puppet based deployment stack</text>
</g>
<g id="graph7" class="cluster"><title>clusterClients</title>
<polygon fill="none" stroke="black" points="490,-16 490,-91 814,-91 814,-16 490,-16"/>
<text text-anchor="middle" x="652" y="-22.4" font-family="Times,serif" font-size="14.00">various puppet clients</text>
</g>
<!-- thirdparty -->
<g id="node2" class="node"><title>thirdparty</title>
<ellipse fill="none" stroke="black" cx="89" cy="-331" rx="72.9439" ry="18"/>
<text text-anchor="middle" x="89" y="-325.9" font-family="Times,serif" font-size="14.00">third party repos</text>
</g>
<!-- reposync -->
<g id="node12" class="node"><title>reposync</title>
<ellipse fill="none" stroke="black" cx="676" cy="-137" rx="74.0934" ry="18"/>
<text text-anchor="middle" x="676" y="-131.9" font-family="Times,serif" font-size="14.00">reposync vserver</text>
</g>
<!-- thirdparty&#45;&gt;reposync -->
<g id="edge12" class="edge"><title>thirdparty&#45;&gt;reposync</title>
<path fill="none" stroke="purple" d="M89.3019,-312.892C90.9106,-280.897 99.2796,-214.752 140,-183 174.782,-155.878 450.07,-143.736 591.996,-139.234"/>
<polygon fill="purple" stroke="purple" points="592.508,-142.72 602.395,-138.911 592.291,-135.724 592.508,-142.72"/>
</g>
<!-- puppetinfraproject -->
<g id="node4" class="node"><title>puppetinfraproject</title>
<ellipse fill="none" stroke="black" cx="463" cy="-331" rx="87.0923" ry="18"/>
<text text-anchor="middle" x="463" y="-325.9" font-family="Times,serif" font-size="14.00">puppet&#45;infra&#45;project</text>
</g>
<!-- puppetinfratarball -->
<g id="node9" class="node"><title>puppetinfratarball</title>
<ellipse fill="none" stroke="black" cx="463" cy="-209" rx="115.04" ry="18"/>
<text text-anchor="middle" x="463" y="-203.9" font-family="Times,serif" font-size="14.00">puppet&#45;infra&#45;project.tar.bz2</text>
</g>
<!-- puppetinfraproject&#45;&gt;puppetinfratarball -->
<g id="edge28" class="edge"><title>puppetinfraproject&#45;&gt;puppetinfratarball</title>
<path fill="none" stroke="blue" d="M463,-312.998C463,-292.996 463,-260.443 463,-237.083"/>
<polygon fill="blue" stroke="blue" points="466.5,-237.075 463,-227.075 459.5,-237.075 466.5,-237.075"/>
</g>
<!-- rabeportageoverlay -->
<g id="node5" class="node"><title>rabeportageoverlay</title>
<ellipse fill="none" stroke="black" cx="269" cy="-331" rx="89.191" ry="18"/>
<text text-anchor="middle" x="269" y="-325.9" font-family="Times,serif" font-size="14.00">rabe&#45;portage&#45;overlay</text>
</g>
<!-- portageoverlayrepo -->
<g id="node8" class="node"><title>portageoverlayrepo</title>
<ellipse fill="none" stroke="black" cx="241" cy="-209" rx="89.191" ry="18"/>
<text text-anchor="middle" x="241" y="-203.9" font-family="Times,serif" font-size="14.00">rabe&#45;portage&#45;overlay</text>
</g>
<!-- rabeportageoverlay&#45;&gt;portageoverlayrepo -->
<g id="edge30" class="edge"><title>rabeportageoverlay&#45;&gt;portageoverlayrepo</title>
<path fill="none" stroke="blue" d="M264.869,-312.998C260.278,-292.996 252.807,-260.443 247.445,-237.083"/>
<polygon fill="blue" stroke="blue" points="250.797,-236.039 245.148,-227.075 243.974,-237.605 250.797,-236.039"/>
</g>
<!-- portageoverlayrepo&#45;&gt;reposync -->
<g id="edge10" class="edge"><title>portageoverlayrepo&#45;&gt;reposync</title>
<path fill="none" stroke="darkgreen" d="M292.09,-194.167C307.113,-190.153 323.638,-186.074 339,-183 426.706,-165.45 528.606,-152.563 597.198,-144.966"/>
<polygon fill="darkgreen" stroke="darkgreen" points="597.932,-148.407 607.491,-143.838 597.169,-141.449 597.932,-148.407"/>
</g>
<!-- puppetinfratarball&#45;&gt;reposync -->
<g id="edge8" class="edge"><title>puppetinfratarball&#45;&gt;reposync</title>
<path fill="none" stroke="darkgreen" d="M511.333,-192.662C544.512,-181.447 588.557,-166.558 622.745,-155.002"/>
<polygon fill="darkgreen" stroke="darkgreen" points="624.209,-158.202 632.561,-151.684 621.967,-151.57 624.209,-158.202"/>
</g>
<!-- puppetmaster -->
<g id="node11" class="node"><title>puppetmaster</title>
<ellipse fill="none" stroke="black" cx="695" cy="-209" rx="92.9418" ry="18"/>
<text text-anchor="middle" x="695" y="-203.9" font-family="Times,serif" font-size="14.00">puppet master vserver</text>
</g>
<!-- puppetmaster&#45;&gt;puppetmaster -->
<g id="edge24" class="edge"><title>puppetmaster&#45;&gt;puppetmaster</title>
<path fill="none" stroke="red" d="M757.481,-222.371C783.71,-223.336 806,-218.879 806,-209 806,-200.433 789.238,-195.944 767.68,-195.531"/>
<polygon fill="red" stroke="red" points="767.447,-192.033 757.481,-195.629 767.514,-199.033 767.447,-192.033"/>
</g>
<!-- puppetmaster&#45;&gt;reposync -->
<g id="edge26" class="edge"><title>puppetmaster&#45;&gt;reposync</title>
<path fill="none" stroke="red" d="M684.253,-190.831C681.471,-183.131 678.833,-173.974 676.884,-165.417"/>
<polygon fill="red" stroke="red" points="680.276,-164.533 674.883,-155.413 673.412,-165.906 680.276,-164.533"/>
</g>
<!-- vserver -->
<g id="node14" class="node"><title>vserver</title>
<ellipse fill="none" stroke="black" cx="569" cy="-65" rx="70.9937" ry="18"/>
<text text-anchor="middle" x="569" y="-59.9" font-family="Times,serif" font-size="14.00">standard vserver</text>
</g>
<!-- puppetmaster&#45;&gt;vserver -->
<g id="edge20" class="edge"><title>puppetmaster&#45;&gt;vserver</title>
<path fill="none" stroke="red" d="M725.111,-191.936C738.087,-182.815 751.894,-170.294 759,-155 767.24,-137.265 771.53,-126.014 759,-111 743.081,-91.9251 673.091,-97.0756 649,-91 639.646,-88.641 629.793,-85.7684 620.322,-82.8042"/>
<polygon fill="red" stroke="red" points="621.217,-79.416 610.626,-79.6998 619.082,-86.0826 621.217,-79.416"/>
</g>
<!-- desktop -->
<g id="node15" class="node"><title>desktop</title>
<ellipse fill="none" stroke="black" cx="732" cy="-65" rx="74.0934" ry="18"/>
<text text-anchor="middle" x="732" y="-59.9" font-family="Times,serif" font-size="14.00">standard desktop</text>
</g>
<!-- puppetmaster&#45;&gt;desktop -->
<g id="edge22" class="edge"><title>puppetmaster&#45;&gt;desktop</title>
<path fill="none" stroke="red" d="M733.624,-192.584C749.109,-183.849 765.315,-171.456 774,-155 783.127,-137.705 781.071,-129.232 774,-111 771.031,-103.344 766.127,-96.182 760.698,-89.8953"/>
<polygon fill="red" stroke="red" points="763.058,-87.2959 753.647,-82.4285 757.968,-92.1021 763.058,-87.2959"/>
</g>
<!-- reposync&#45;&gt;puppetmaster -->
<g id="edge18" class="edge"><title>reposync&#45;&gt;puppetmaster</title>
<path fill="none" stroke="darkgreen" d="M686.654,-154.913C689.514,-162.785 692.227,-172.215 694.206,-180.98"/>
<polygon fill="darkgreen" stroke="darkgreen" points="690.781,-181.702 696.158,-190.831 697.648,-180.342 690.781,-181.702"/>
</g>
<!-- reposync&#45;&gt;vserver -->
<g id="edge14" class="edge"><title>reposync&#45;&gt;vserver</title>
<path fill="none" stroke="darkgreen" d="M650.642,-119.937C636.251,-110.253 618.061,-98.0131 602.506,-87.5458"/>
<polygon fill="darkgreen" stroke="darkgreen" points="604.426,-84.6195 594.175,-81.9405 600.518,-90.4271 604.426,-84.6195"/>
</g>
<!-- reposync&#45;&gt;desktop -->
<g id="edge16" class="edge"><title>reposync&#45;&gt;desktop</title>
<path fill="none" stroke="darkgreen" d="M689.843,-119.202C696.506,-110.635 704.621,-100.201 711.946,-90.7839"/>
<polygon fill="darkgreen" stroke="darkgreen" points="714.746,-92.8849 718.122,-82.8425 709.22,-88.5873 714.746,-92.8849"/>
</g>
</g>
</svg>
